<?xml version="1.0" encoding="UTF-8" standalone="no"?>
<svg
   xmlns:dc="http://purl.org/dc/elements/1.1/"
   xmlns:cc="http://creativecommons.org/ns#"
   xmlns:rdf="http://www.w3.org/1999/02/22-rdf-syntax-ns#"
   xmlns:svg="http://www.w3.org/2000/svg"
   xmlns="http://www.w3.org/2000/svg"
   xmlns:sodipodi="http://sodipodi.sourceforge.net/DTD/sodipodi-0.dtd"
   xmlns:inkscape="http://www.inkscape.org/namespaces/inkscape"
   width="146.10678mm"
   height="146.3609mm"
   viewBox="0 0 146.10678 146.3609"
   version="1.1"
   id="svg1930"
   inkscape:version="1.0.1 (1.0.1+r75)"
   sodipodi:docname="logo_dark.svg">
  <defs
     id="defs1924">
    <inkscape:path-effect
       effect="bspline"
       id="path-effect2208"
       is_visible="true"
       lpeversion="1"
       weight="33.333333"
       steps="2"
       helper_size="0"
       apply_no_weight="true"
       apply_with_weight="true"
       only_selected="false" />
    <inkscape:path-effect
       effect="bspline"
       id="path-effect1571"
       is_visible="true"
       lpeversion="1"
       weight="33.333333"
       steps="2"
       helper_size="0"
       apply_no_weight="true"
       apply_with_weight="true"
       only_selected="false" />
    <inkscape:path-effect
       effect="bspline"
       id="path-effect1505"
       is_visible="true"
       lpeversion="1"
       weight="33.333333"
       steps="2"
       helper_size="0"
       apply_no_weight="true"
       apply_with_weight="true"
       only_selected="false" />
  </defs>
  <sodipodi:namedview
     id="base"
     pagecolor="#1b1b1b"
     bordercolor="#666666"
     borderopacity="1.0"
     inkscape:pageopacity="0"
     inkscape:pageshadow="2"
     inkscape:zoom="0.35"
     inkscape:cx="196.5206"
     inkscape:cy="108.97551"
     inkscape:document-units="mm"
     inkscape:current-layer="layer1"
     inkscape:document-rotation="0"
     showgrid="false"
     inkscape:window-width="1920"
     inkscape:window-height="1080"
     inkscape:window-x="1920"
     inkscape:window-y="0"
     inkscape:window-maximized="1" />
  <metadata
     id="metadata1927">
    <rdf:RDF>
      <cc:Work
         rdf:about="">
        <dc:format>image/svg+xml</dc:format>
        <dc:type
           rdf:resource="http://purl.org/dc/dcmitype/StillImage" />
        <dc:title />
      </cc:Work>
    </rdf:RDF>
  </metadata>
  <g
     inkscape:label="Layer 1"
     inkscape:groupmode="layer"
     id="layer1"
     transform="translate(-51.869408,-76.152439)">
    <circle
       style="display:inline;fill:#73a6f5;fill-opacity:1;stroke:none;stroke-width:14.5;stroke-miterlimit:4;stroke-dasharray:none;stroke-opacity:1"
       id="a_bot_fill"
       cx="91.962105"
       cy="-182.29642"
       r="32.834152"
       transform="scale(1,-1)"
       class="fill" />
    <circle
       style="display:inline;fill:#73a6f5;fill-opacity:1;stroke:none;stroke-width:14.5;stroke-miterlimit:4;stroke-dasharray:none;stroke-opacity:1"
       id="a_top_fill"
       cx="91.95356"
       cy="-116.36042"
       transform="scale(1,-1)"
       r="32.834152"
       class="fill" />
    <circle
       style="display:inline;fill:#73a6f5;fill-opacity:1;stroke:none;stroke-width:14.5;stroke-miterlimit:4;stroke-dasharray:none;stroke-opacity:1"
       id="r_fill"
       cx="157.89204"
       cy="-116.36042"
       r="32.834152"
       transform="scale(1,-1)"
       class="fill" />
    <path
       id="a_top_outline"
       style="display:inline;fill:none;fill-opacity:1;stroke:#5e91f4;stroke-width:14.5;stroke-linecap:round;stroke-miterlimit:4;stroke-dasharray:none;stroke-opacity:1"
       d="m 124.78771,116.36041 a 32.834151,32.834151 0 0 0 -32.834152,-32.834141 32.834151,32.834151 0 0 0 -32.83415,32.834141 32.834151,32.834151 0 0 0 32.83415,32.83415 32.834151,32.834151 0 0 0 32.834152,-32.83415 z" />
    <path
       id="r_outline"
       style="display:inline;fill:none;fill-opacity:1;stroke:#5e91f4;stroke-width:14.5;stroke-linecap:round;stroke-miterlimit:4;stroke-dasharray:none;stroke-opacity:1"
       d="m 190.72619,116.36041 a 32.834151,32.834151 0 0 0 -32.83415,-32.834141 32.834151,32.834151 0 0 0 -32.83415,32.834141 32.834151,32.834151 0 0 0 32.83415,32.83415 32.834151,32.834151 0 0 0 32.83415,-32.83415 z" />
    <g
       id="a_bot_outline_g"
       style="display:inline"
       transform="translate(2230.3584,-27.163719)">
      <path
         id="a_bot_outline"
         style="fill:none;fill-opacity:1;stroke:#5e91f4;stroke-width:14.5;stroke-linecap:round;stroke-miterlimit:4;stroke-dasharray:none;stroke-opacity:1"
         transform="scale(1,-1)"
         d="m -2105.5621,-209.46014 a 32.834152,32.834152 0 0 1 -32.8341,32.83415 32.834152,32.834152 0 0 1 -32.8342,-32.83415 32.834152,32.834152 0 0 1 32.8342,-32.83416 32.834152,32.834152 0 0 1 32.8341,32.83416 z" />
      <path
         id="a_bot_extra_fill"
         style="display:inline;fill:none;fill-opacity:1;stroke:#5e91f4;stroke-width:4.28649;stroke-linecap:round;stroke-miterlimit:4;stroke-dasharray:none;stroke-opacity:1"
         d="m -2113.5648,177.40381 a 2.1500417,2.1500417 0 0 1 -2.15,2.15004 2.1500417,2.1500417 0 0 1 -2.1501,-2.15004 2.1500417,2.1500417 0 0 1 2.1501,-2.15004 2.1500417,2.1500417 0 0 1 2.15,2.15004 z" />
    </g>
    <path
       id="a_bot_arc"
       style="display:inline;opacity:1;fill:none;fill-opacity:1;stroke:#c4dafb;stroke-width:14.5;stroke-linecap:round;stroke-linejoin:miter;stroke-miterlimit:4;stroke-dasharray:none;stroke-opacity:1;paint-order:normal"
       d="m 92.090058,149.3286 c -18.1338,-3e-5 -32.8342,14.70033 -32.8342,32.83415 0,18.13382 14.7004,32.83419 32.8342,32.83416 18.133802,-3e-5 32.834102,-14.70038 32.834102,-32.83416"
       sodipodi:nodetypes="cssc" />
    <path
       id="a_top_arc"
       style="display:inline;opacity:1;fill:none;fill-opacity:1;stroke:#c4dafb;stroke-width:14.5;stroke-linecap:round;stroke-linejoin:miter;stroke-miterlimit:4;stroke-dasharray:none;stroke-opacity:1;paint-order:normal"
       d="m 92.081458,149.3286 c 18.133802,3e-5 32.834202,-14.70034 32.834202,-32.83416 0,-18.133811 -14.7004,-32.834181 -32.834202,-32.834151 -18.1338,3e-5 -32.8341,14.70038 -32.8341,32.834151"
       sodipodi:nodetypes="cssc" />
    <path
       id="r_arc"
       style="display:inline;opacity:1;fill:none;fill-opacity:1;stroke:#c4dafb;stroke-width:14.5;stroke-linecap:round;stroke-linejoin:miter;stroke-miterlimit:4;stroke-dasharray:none;stroke-opacity:1;paint-order:normal"
       d="m 190.58356,116.3604 c 0,-18.133771 -14.7003,-32.834121 -32.8341,-32.834151 -18.1338,-3e-5 -32.8342,14.70034 -32.8342,32.834151"
       sodipodi:nodetypes="csc" />
    <path
       style="display:inline;opacity:1;fill:none;stroke:#c4dafb;stroke-width:14.5;stroke-linecap:round;stroke-linejoin:miter;stroke-miterlimit:4;stroke-dasharray:none;stroke-opacity:1;paint-order:normal"
       d="m 124.92336,215.26334 c 0,0 0,-131.860901 0,-131.860901"
       id="stem"
       inkscape:path-effect="#path-effect2208"
       inkscape:original-d="m 124.92336,215.26334 v -131.860901"
       sodipodi:nodetypes="cc" />
  </g>
</svg>
