<svg xmlns="http://www.w3.org/2000/svg" viewBox="0 0 146.107 146.361" version="1.1" id="svg1076"><g id="layer1" transform="translate(-291.403 -88.789)"><circle id="a_bot_fill" cx="331.496" cy="-194.933" r="32.834" transform="scale(1 -1)" class="fill" display="inline" fill="#b8d4ff" fill-opacity="1" stroke="none" stroke-width="14.5" stroke-miterlimit="4" stroke-dasharray="none" stroke-opacity="1"/><circle id="a_top_fill" cx="331.487" cy="-128.997" transform="scale(1 -1)" r="32.834" class="fill" display="inline" fill="#b8d4ff" fill-opacity="1" stroke="none" stroke-width="14.5" stroke-miterlimit="4" stroke-dasharray="none" stroke-opacity="1"/><circle id="r_fill" cx="397.426" cy="-128.997" r="32.834" transform="scale(1 -1)" class="fill" display="inline" fill="#b8d4ff" fill-opacity="1" stroke="none" stroke-width="14.5" stroke-miterlimit="4" stroke-dasharray="none" stroke-opacity="1"/><path id="a_top_outline" d="M364.321 128.997a32.834 32.834 0 00-32.834-32.834 32.834 32.834 0 00-32.834 32.834 32.834 32.834 0 0032.834 32.834 32.834 32.834 0 0032.834-32.834z" display="inline" fill="none" fill-opacity="1" stroke="#a9c4f9" stroke-width="14.5" stroke-miterlimit="4" stroke-dasharray="none" stroke-opacity="1" stroke-linecap="round"/><path id="r_outline" d="M430.26 128.997a32.834 32.834 0 00-32.834-32.834 32.834 32.834 0 00-32.835 32.834 32.834 32.834 0 0032.835 32.834 32.834 32.834 0 0032.834-32.834z" display="inline" fill="none" fill-opacity="1" stroke="#a9c4f9" stroke-width="14.5" stroke-miterlimit="4" stroke-dasharray="none" stroke-opacity="1" stroke-linecap="round"/><g id="a_bot_outline_g" transform="translate(2469.892 -14.527)" display="inline" fill="none" fill-opacity="1" stroke="#a9c4f9" stroke-miterlimit="4" stroke-dasharray="none" stroke-opacity="1" stroke-linecap="round"><path id="a_bot_outline" d="M-2105.562 209.46a32.834 32.834 0 00-32.834-32.834 32.834 32.834 0 00-32.834 32.834 32.834 32.834 0 0032.834 32.834 32.834 32.834 0 0032.834-32.834z" stroke-width="14.5"/><path id="a_bot_extra_fill" d="M-2113.565 177.404a2.15 2.15 0 01-2.15 2.15 2.15 2.15 0 01-2.15-2.15 2.15 2.15 0 012.15-2.15 2.15 2.15 0 012.15 2.15z" display="inline" stroke-width="4.286"/></g><path id="a_bot_arc" d="M331.624 161.965c-18.134 0-32.835 14.7-32.835 32.834 0 18.134 14.7 32.834 32.835 32.834 18.133 0 32.834-14.7 32.834-32.834" display="inline" opacity="1" fill="none" fill-opacity="1" stroke="#2d2d2d" stroke-width="14.5" stroke-linecap="round" stroke-linejoin="miter" stroke-miterlimit="4" stroke-dasharray="none" stroke-opacity="1" paint-order="normal"/><path id="a_top_arc" d="M331.615 161.965c18.134 0 32.834-14.7 32.834-32.834 0-18.134-14.7-32.834-32.834-32.834-18.134 0-32.834 14.7-32.834 32.834" display="inline" opacity="1" fill="none" fill-opacity="1" stroke="#2d2d2d" stroke-width="14.5" stroke-linecap="round" stroke-linejoin="miter" stroke-miterlimit="4" stroke-dasharray="none" stroke-opacity="1" paint-order="normal"/><path id="r_arc" d="M430.117 128.997c0-18.134-14.7-32.834-32.834-32.834-18.134 0-32.834 14.7-32.834 32.834" display="inline" opacity="1" fill="none" fill-opacity="1" stroke="#2d2d2d" stroke-width="14.5" stroke-linecap="round" stroke-linejoin="miter" stroke-miterlimit="4" stroke-dasharray="none" stroke-opacity="1" paint-order="normal"/><path d="M364.457 227.9V96.039" id="stem" display="inline" opacity="1" fill="none" stroke="#2d2d2d" stroke-width="14.5" stroke-linecap="round" stroke-linejoin="miter" stroke-miterlimit="4" stroke-dasharray="none" stroke-opacity="1" paint-order="normal"/></g></svg>