<svg xmlns="http://www.w3.org/2000/svg" viewBox="0 0 146.107 146.361" version="1.1" id="svg1930"><g id="layer1" transform="translate(-51.87 -76.152)"><circle id="a_bot_fill" cx="91.962" cy="-182.296" r="32.834" transform="scale(1 -1)" class="fill" display="inline" fill="#73a6f5" fill-opacity="1" stroke="none" stroke-width="14.5" stroke-miterlimit="4" stroke-dasharray="none" stroke-opacity="1"/><circle id="a_top_fill" cx="91.954" cy="-116.36" transform="scale(1 -1)" r="32.834" class="fill" display="inline" fill="#73a6f5" fill-opacity="1" stroke="none" stroke-width="14.5" stroke-miterlimit="4" stroke-dasharray="none" stroke-opacity="1"/><circle id="r_fill" cx="157.892" cy="-116.36" r="32.834" transform="scale(1 -1)" class="fill" display="inline" fill="#73a6f5" fill-opacity="1" stroke="none" stroke-width="14.5" stroke-miterlimit="4" stroke-dasharray="none" stroke-opacity="1"/><path id="a_top_outline" d="M124.788 116.36a32.834 32.834 0 00-32.834-32.834 32.834 32.834 0 00-32.835 32.834 32.834 32.834 0 0032.835 32.835 32.834 32.834 0 0032.834-32.835z" display="inline" fill="none" fill-opacity="1" stroke="#5e91f4" stroke-width="14.5" stroke-linecap="round" stroke-miterlimit="4" stroke-dasharray="none" stroke-opacity="1"/><path id="r_outline" d="M190.726 116.36a32.834 32.834 0 00-32.834-32.834 32.834 32.834 0 00-32.834 32.834 32.834 32.834 0 0032.834 32.835 32.834 32.834 0 0032.834-32.835z" display="inline" fill="none" fill-opacity="1" stroke="#5e91f4" stroke-width="14.5" stroke-linecap="round" stroke-miterlimit="4" stroke-dasharray="none" stroke-opacity="1"/><g id="a_bot_outline_g" transform="translate(2230.358 -27.164)" display="inline" fill="none" fill-opacity="1" stroke="#5e91f4" stroke-linecap="round" stroke-miterlimit="4" stroke-dasharray="none" stroke-opacity="1"><path id="a_bot_outline" d="M-2105.562 209.46a32.834 32.834 0 00-32.834-32.834 32.834 32.834 0 00-32.834 32.834 32.834 32.834 0 0032.834 32.834 32.834 32.834 0 0032.834-32.834z" stroke-width="14.5"/><path id="a_bot_extra_fill" d="M-2113.565 177.404a2.15 2.15 0 01-2.15 2.15 2.15 2.15 0 01-2.15-2.15 2.15 2.15 0 012.15-2.15 2.15 2.15 0 012.15 2.15z" display="inline" stroke-width="4.286"/></g><path id="a_bot_arc" d="M92.09 149.329c-18.134 0-32.834 14.7-32.834 32.834 0 18.134 14.7 32.834 32.834 32.834 18.134 0 32.834-14.7 32.834-32.834" display="inline" opacity="1" fill="none" fill-opacity="1" stroke="#c4dafb" stroke-width="14.5" stroke-linecap="round" stroke-linejoin="miter" stroke-miterlimit="4" stroke-dasharray="none" stroke-opacity="1" paint-order="normal"/><path id="a_top_arc" d="M92.081 149.329c18.134 0 32.835-14.7 32.835-32.835 0-18.133-14.7-32.834-32.835-32.834-18.133 0-32.834 14.7-32.834 32.834" display="inline" opacity="1" fill="none" fill-opacity="1" stroke="#c4dafb" stroke-width="14.5" stroke-linecap="round" stroke-linejoin="miter" stroke-miterlimit="4" stroke-dasharray="none" stroke-opacity="1" paint-order="normal"/><path id="r_arc" d="M190.584 116.36c0-18.133-14.7-32.834-32.835-32.834-18.133 0-32.834 14.7-32.834 32.834" display="inline" opacity="1" fill="none" fill-opacity="1" stroke="#c4dafb" stroke-width="14.5" stroke-linecap="round" stroke-linejoin="miter" stroke-miterlimit="4" stroke-dasharray="none" stroke-opacity="1" paint-order="normal"/><path d="M124.923 215.263V83.403" id="stem" display="inline" opacity="1" fill="none" stroke="#c4dafb" stroke-width="14.5" stroke-linecap="round" stroke-linejoin="miter" stroke-miterlimit="4" stroke-dasharray="none" stroke-opacity="1" paint-order="normal"/></g></svg>