<?xml version="1.0" encoding="UTF-8" standalone="no"?>
<svg
   xmlns:dc="http://purl.org/dc/elements/1.1/"
   xmlns:cc="http://creativecommons.org/ns#"
   xmlns:rdf="http://www.w3.org/1999/02/22-rdf-syntax-ns#"
   xmlns:svg="http://www.w3.org/2000/svg"
   xmlns="http://www.w3.org/2000/svg"
   xmlns:sodipodi="http://sodipodi.sourceforge.net/DTD/sodipodi-0.dtd"
   xmlns:inkscape="http://www.inkscape.org/namespaces/inkscape"
   width="146.10678mm"
   height="146.3609mm"
   viewBox="0 0 146.10678 146.3609"
   version="1.1"
   id="svg1076"
   inkscape:version="1.0.1 (1.0.1+r75)"
   sodipodi:docname="logo.svg">
  <defs
     id="defs1070">
    <inkscape:path-effect
       effect="bspline"
       id="path-effect1505"
       is_visible="true"
       lpeversion="1"
       weight="33.333333"
       steps="2"
       helper_size="0"
       apply_no_weight="true"
       apply_with_weight="true"
       only_selected="false" />
  </defs>
  <sodipodi:namedview
     id="base"
     pagecolor="#ffffff"
     bordercolor="#666666"
     borderopacity="1.0"
     inkscape:pageopacity="0.0"
     inkscape:pageshadow="2"
     inkscape:zoom="0.98994949"
     inkscape:cx="38.507784"
     inkscape:cy="312.40834"
     inkscape:document-units="mm"
     inkscape:current-layer="layer1"
     inkscape:document-rotation="0"
     showgrid="false"
     inkscape:window-width="1920"
     inkscape:window-height="1080"
     inkscape:window-x="1920"
     inkscape:window-y="0"
     inkscape:window-maximized="1" />
  <metadata
     id="metadata1073">
    <rdf:RDF>
      <cc:Work
         rdf:about="">
        <dc:format>image/svg+xml</dc:format>
        <dc:type
           rdf:resource="http://purl.org/dc/dcmitype/StillImage" />
        <dc:title />
      </cc:Work>
    </rdf:RDF>
  </metadata>
  <g
     inkscape:label="Layer 1"
     inkscape:groupmode="layer"
     id="layer1"
     transform="translate(-291.40294,-88.788897)">
    <circle
       style="display:inline;fill:#b8d4ff;fill-opacity:1;stroke:none;stroke-width:14.5;stroke-miterlimit:4;stroke-dasharray:none;stroke-opacity:1"
       id="a_bot_fill"
       cx="331.49564"
       cy="-194.93288"
       r="32.834152"
       transform="scale(1,-1)"
       class="fill" />
    <circle
       style="display:inline;fill:#b8d4ff;fill-opacity:1;stroke:none;stroke-width:14.5;stroke-miterlimit:4;stroke-dasharray:none;stroke-opacity:1"
       id="a_top_fill"
       cx="331.48709"
       cy="-128.99687"
       transform="scale(1,-1)"
       r="32.834152"
       class="fill" />
    <circle
       style="display:inline;fill:#b8d4ff;fill-opacity:1;stroke:none;stroke-width:14.5;stroke-miterlimit:4;stroke-dasharray:none;stroke-opacity:1"
       id="r_fill"
       cx="397.42557"
       cy="-128.99687"
       r="32.834152"
       transform="scale(1,-1)"
       class="fill" />
    <path
       id="a_top_outline"
       style="display:inline;fill:none;fill-opacity:1;stroke:#a9c4f9;stroke-width:14.5;stroke-miterlimit:4;stroke-dasharray:none;stroke-opacity:1;stroke-linecap:round"
       d="m 364.32124,128.99687 a 32.834152,32.834152 0 0 0 -32.83415,-32.83415 32.834152,32.834152 0 0 0 -32.83415,32.83415 32.834152,32.834152 0 0 0 32.83415,32.83415 32.834152,32.834152 0 0 0 32.83415,-32.83415 z" />
    <path
       id="r_outline"
       style="display:inline;fill:none;fill-opacity:1;stroke:#a9c4f9;stroke-width:14.5;stroke-miterlimit:4;stroke-dasharray:none;stroke-opacity:1;stroke-linecap:round"
       d="m 430.25972,128.99687 a 32.834152,32.834152 0 0 0 -32.83415,-32.83415 32.834152,32.834152 0 0 0 -32.83415,32.83415 32.834152,32.834152 0 0 0 32.83415,32.83415 32.834152,32.834152 0 0 0 32.83415,-32.83415 z" />
    <g
       id="a_bot_outline_g"
       style="display:inline"
       transform="translate(2469.8919,-14.527263)">
      <path
         id="a_bot_outline"
         style="fill:none;fill-opacity:1;stroke:#a9c4f9;stroke-width:14.5;stroke-miterlimit:4;stroke-dasharray:none;stroke-opacity:1;stroke-linecap:round"
         transform="scale(1,-1)"
         d="m -2105.5621,-209.46014 a 32.834152,32.834152 0 0 1 -32.8341,32.83415 32.834152,32.834152 0 0 1 -32.8342,-32.83415 32.834152,32.834152 0 0 1 32.8342,-32.83416 32.834152,32.834152 0 0 1 32.8341,32.83416 z" />
      <path
         id="a_bot_extra_fill"
         style="display:inline;fill:none;fill-opacity:1;stroke:#a9c4f9;stroke-width:4.28649;stroke-linecap:round;stroke-miterlimit:4;stroke-dasharray:none;stroke-opacity:1"
         d="m -2113.5648,177.40381 a 2.1500417,2.1500417 0 0 1 -2.15,2.15004 2.1500417,2.1500417 0 0 1 -2.1501,-2.15004 2.1500417,2.1500417 0 0 1 2.1501,-2.15004 2.1500417,2.1500417 0 0 1 2.15,2.15004 z" />
    </g>
    <path
       id="a_bot_arc"
       style="display:inline;opacity:1;fill:none;fill-opacity:1;stroke:#2d2d2d;stroke-width:14.5;stroke-linecap:round;stroke-linejoin:miter;stroke-miterlimit:4;stroke-dasharray:none;stroke-opacity:1;paint-order:normal"
       d="m 331.62359,161.96506 c -18.1338,-3e-5 -32.8342,14.70033 -32.8342,32.83415 0,18.13382 14.7004,32.83419 32.8342,32.83416 18.1338,-3e-5 32.8341,-14.70038 32.8341,-32.83416"
       sodipodi:nodetypes="cssc" />
    <path
       id="a_top_arc"
       style="display:inline;opacity:1;fill:none;fill-opacity:1;stroke:#2d2d2d;stroke-width:14.5;stroke-linecap:round;stroke-linejoin:miter;stroke-miterlimit:4;stroke-dasharray:none;stroke-opacity:1;paint-order:normal"
       d="m 331.61499,161.96506 c 18.1338,3e-5 32.8342,-14.70034 32.8342,-32.83416 0,-18.13382 -14.7004,-32.834183 -32.8342,-32.834153 -18.1338,3e-5 -32.8341,14.700373 -32.8341,32.834153"
       sodipodi:nodetypes="cssc" />
    <path
       id="r_arc"
       style="display:inline;opacity:1;fill:none;fill-opacity:1;stroke:#2d2d2d;stroke-width:14.5;stroke-linecap:round;stroke-linejoin:miter;stroke-miterlimit:4;stroke-dasharray:none;stroke-opacity:1;paint-order:normal"
       d="m 430.11709,128.99686 c 0,-18.13378 -14.7003,-32.834123 -32.8341,-32.834153 -18.1338,-3e-5 -32.8342,14.700333 -32.8342,32.834153"
       sodipodi:nodetypes="csc" />
    <path
       style="display:inline;opacity:1;fill:none;stroke:#2d2d2d;stroke-width:14.5;stroke-linecap:round;stroke-linejoin:miter;stroke-miterlimit:4;stroke-dasharray:none;stroke-opacity:1;paint-order:normal"
       d="m 364.45689,227.8998 c 0,0 0,-131.860903 0,-131.860903"
       id="stem"
       inkscape:path-effect="#path-effect1505"
       inkscape:original-d="m 364.45689,227.8998 v -131.860903"
       sodipodi:nodetypes="cc" />
  </g>
</svg>
